<?xml version="1.0" encoding="UTF-8" standalone="no"?><svg xmlns="http://www.w3.org/2000/svg" xmlns:xlink="http://www.w3.org/1999/xlink" contentScriptType="application/ecmascript" contentStyleType="text/css" height="780px" preserveAspectRatio="none" style="width:613px;height:780px;" version="1.1" viewBox="0 0 613 780" width="613px" zoomAndPan="magnify"><defs><filter height="300%" id="f1kxi64v6az130" width="300%" x="-1" y="-1"><feGaussianBlur result="blurOut" stdDeviation="2.0"/><feColorMatrix in="blurOut" result="blurOut2" type="matrix" values="0 0 0 0 0 0 0 0 0 0 0 0 0 0 0 0 0 0 .4 0"/><feOffset dx="4.0" dy="4.0" in="blurOut2" result="blurOut3"/><feBlend in="SourceGraphic" in2="blurOut3" mode="normal"/></filter></defs><g><!--MD5=[0f39e4cb6f03951afbf6d14bd2505654]
class Address--><rect codeLine="2" fill="#FEFECE" filter="url(#f1kxi64v6az130)" height="200.1953" id="Address" style="stroke:#A80036;stroke-width:1.5;" width="115" x="7" y="389"/><ellipse cx="38.65" cy="405" fill="#ADD1B2" rx="11" ry="11" style="stroke:#A80036;stroke-width:1.0;"/><path d="M41.4156,400.875 Q41.5719,400.6563 41.7594,400.5469 Q41.9469,400.4375 42.1656,400.4375 Q42.5406,400.4375 42.775,400.6953 Q43.0094,400.9531 43.0094,401.5625 L43.0094,403.0156 Q43.0094,403.625 42.775,403.8906 Q42.5406,404.1563 42.1656,404.1563 Q41.8219,404.1563 41.6188,403.9531 Q41.4156,403.7656 41.3063,403.25 Q41.2594,402.8906 41.0719,402.7031 Q40.7438,402.3281 40.1344,402.1094 Q39.525,401.8906 38.9,401.8906 Q38.1344,401.8906 37.5016,402.2188 Q36.8688,402.5469 36.3766,403.2969 Q35.8844,404.0469 35.8844,405.0781 L35.8844,406.1719 Q35.8844,407.4063 36.775,408.2266 Q37.6656,409.0469 39.2594,409.0469 Q40.1969,409.0469 40.8531,408.7969 Q41.2438,408.6406 41.6656,408.2031 Q41.9313,407.9375 42.0797,407.8594 Q42.2281,407.7813 42.4313,407.7813 Q42.7594,407.7813 43.0172,408.0391 Q43.275,408.2969 43.275,408.6406 Q43.275,408.9844 42.9313,409.3906 Q42.4313,409.9688 41.6344,410.2969 Q40.5563,410.75 39.2594,410.75 Q37.7438,410.75 36.5406,410.125 Q35.5563,409.625 34.8688,408.5547 Q34.1813,407.4844 34.1813,406.2031 L34.1813,405.0469 Q34.1813,403.7188 34.7984,402.5703 Q35.4156,401.4219 36.5094,400.8047 Q37.6031,400.1875 38.8375,400.1875 Q39.5719,400.1875 40.2203,400.3516 Q40.8688,400.5156 41.4156,400.875 Z " fill="#000000"/><text fill="#000000" font-family="sans-serif" font-size="12" lengthAdjust="spacing" textLength="46" x="56.35" y="409.9102">Address</text><line style="stroke:#A80036;stroke-width:1.5;" x1="8" x2="121" y1="421" y2="421"/><rect fill="none" height="6" style="stroke:#C82930;stroke-width:1.0;" width="6" x="15" y="429"/><text fill="#000000" font-family="sans-serif" font-size="11" lengthAdjust="spacing" textLength="68" x="27" y="436.4189">String country</text><rect fill="none" height="6" style="stroke:#C82930;stroke-width:1.0;" width="6" x="15" y="442.8359"/><text fill="#000000" font-family="sans-serif" font-size="11" lengthAdjust="spacing" textLength="48" x="27" y="450.2549">String city</text><rect fill="none" height="6" style="stroke:#C82930;stroke-width:1.0;" width="6" x="15" y="456.6719"/><text fill="#000000" font-family="sans-serif" font-size="11" lengthAdjust="spacing" textLength="67" x="27" y="464.0908">int postalcode</text><rect fill="none" height="6" style="stroke:#C82930;stroke-width:1.0;" width="6" x="15" y="470.5078"/><text fill="#000000" font-family="sans-serif" font-size="11" lengthAdjust="spacing" textLength="59" x="27" y="477.9268">String street</text><rect fill="none" height="6" style="stroke:#C82930;stroke-width:1.0;" width="6" x="15" y="484.3438"/><text fill="#000000" font-family="sans-serif" font-size="11" lengthAdjust="spacing" textLength="50" x="27" y="491.7627">int number</text><line style="stroke:#A80036;stroke-width:1.5;" x1="8" x2="121" y1="498.1797" y2="498.1797"/><ellipse cx="18" cy="509.1797" fill="#84BE84" rx="3" ry="3" style="stroke:#038048;stroke-width:1.0;"/><text fill="#000000" font-family="sans-serif" font-size="11" lengthAdjust="spacing" textLength="66" x="27" y="513.5986">get_country()</text><ellipse cx="18" cy="523.0156" fill="#84BE84" rx="3" ry="3" style="stroke:#038048;stroke-width:1.0;"/><text fill="#000000" font-family="sans-serif" font-size="11" lengthAdjust="spacing" textLength="46" x="27" y="527.4346">get_city()</text><ellipse cx="18" cy="536.8516" fill="#84BE84" rx="3" ry="3" style="stroke:#038048;stroke-width:1.0;"/><text fill="#000000" font-family="sans-serif" font-size="11" lengthAdjust="spacing" textLength="82" x="27" y="541.2705">get_postalcode()</text><ellipse cx="18" cy="550.6875" fill="#84BE84" rx="3" ry="3" style="stroke:#038048;stroke-width:1.0;"/><text fill="#000000" font-family="sans-serif" font-size="11" lengthAdjust="spacing" textLength="57" x="27" y="555.1064">get_street()</text><ellipse cx="18" cy="564.5234" fill="#84BE84" rx="3" ry="3" style="stroke:#038048;stroke-width:1.0;"/><text fill="#000000" font-family="sans-serif" font-size="11" lengthAdjust="spacing" textLength="65" x="27" y="568.9424">get_number()</text><ellipse cx="18" cy="578.3594" fill="#84BE84" rx="3" ry="3" style="stroke:#038048;stroke-width:1.0;"/><text fill="#000000" font-family="sans-serif" font-size="11" lengthAdjust="spacing" textLength="89" x="27" y="582.7783">get_full_address()</text><!--MD5=[e44229c5e70925dcd4e100cd76fc2258]
class ContactDetails--><rect codeLine="15" fill="#FEFECE" filter="url(#f1kxi64v6az130)" height="158.6875" id="ContactDetails" style="stroke:#A80036;stroke-width:1.5;" width="129" x="157" y="409.5"/><ellipse cx="179.2" cy="425.5" fill="#ADD1B2" rx="11" ry="11" style="stroke:#A80036;stroke-width:1.0;"/><path d="M181.9656,421.375 Q182.1219,421.1563 182.3094,421.0469 Q182.4969,420.9375 182.7156,420.9375 Q183.0906,420.9375 183.325,421.1953 Q183.5594,421.4531 183.5594,422.0625 L183.5594,423.5156 Q183.5594,424.125 183.325,424.3906 Q183.0906,424.6563 182.7156,424.6563 Q182.3719,424.6563 182.1688,424.4531 Q181.9656,424.2656 181.8563,423.75 Q181.8094,423.3906 181.6219,423.2031 Q181.2938,422.8281 180.6844,422.6094 Q180.075,422.3906 179.45,422.3906 Q178.6844,422.3906 178.0516,422.7188 Q177.4188,423.0469 176.9266,423.7969 Q176.4344,424.5469 176.4344,425.5781 L176.4344,426.6719 Q176.4344,427.9063 177.325,428.7266 Q178.2156,429.5469 179.8094,429.5469 Q180.7469,429.5469 181.4031,429.2969 Q181.7938,429.1406 182.2156,428.7031 Q182.4813,428.4375 182.6297,428.3594 Q182.7781,428.2813 182.9813,428.2813 Q183.3094,428.2813 183.5672,428.5391 Q183.825,428.7969 183.825,429.1406 Q183.825,429.4844 183.4813,429.8906 Q182.9813,430.4688 182.1844,430.7969 Q181.1063,431.25 179.8094,431.25 Q178.2938,431.25 177.0906,430.625 Q176.1063,430.125 175.4188,429.0547 Q174.7313,427.9844 174.7313,426.7031 L174.7313,425.5469 Q174.7313,424.2188 175.3484,423.0703 Q175.9656,421.9219 177.0594,421.3047 Q178.1531,420.6875 179.3875,420.6875 Q180.1219,420.6875 180.7703,420.8516 Q181.4188,421.0156 181.9656,421.375 Z " fill="#000000"/><text fill="#000000" font-family="sans-serif" font-size="12" lengthAdjust="spacing" textLength="81" x="194.8" y="430.4102">ContactDetails</text><line style="stroke:#A80036;stroke-width:1.5;" x1="158" x2="285" y1="441.5" y2="441.5"/><rect fill="none" height="6" style="stroke:#C82930;stroke-width:1.0;" width="6" x="165" y="449.5"/><text fill="#000000" font-family="sans-serif" font-size="11" lengthAdjust="spacing" textLength="82" x="177" y="456.9189">String first_name</text><rect fill="none" height="6" style="stroke:#C82930;stroke-width:1.0;" width="6" x="165" y="463.3359"/><text fill="#000000" font-family="sans-serif" font-size="11" lengthAdjust="spacing" textLength="80" x="177" y="470.7549">String last_name</text><rect fill="none" height="6" style="stroke:#C82930;stroke-width:1.0;" width="6" x="165" y="477.1719"/><text fill="#000000" font-family="sans-serif" font-size="11" lengthAdjust="spacing" textLength="55" x="177" y="484.5908">String email</text><rect fill="none" height="6" style="stroke:#C82930;stroke-width:1.0;" width="6" x="165" y="491.0078"/><text fill="#000000" font-family="sans-serif" font-size="11" lengthAdjust="spacing" textLength="103" x="177" y="498.4268">String phone_number</text><line style="stroke:#A80036;stroke-width:1.5;" x1="158" x2="285" y1="504.8438" y2="504.8438"/><ellipse cx="168" cy="515.8438" fill="#84BE84" rx="3" ry="3" style="stroke:#038048;stroke-width:1.0;"/><text fill="#000000" font-family="sans-serif" font-size="11" lengthAdjust="spacing" textLength="80" x="177" y="520.2627">get_first_name()</text><ellipse cx="168" cy="529.6797" fill="#84BE84" rx="3" ry="3" style="stroke:#038048;stroke-width:1.0;"/><text fill="#000000" font-family="sans-serif" font-size="11" lengthAdjust="spacing" textLength="78" x="177" y="534.0986">get_last_name()</text><ellipse cx="168" cy="543.5156" fill="#84BE84" rx="3" ry="3" style="stroke:#038048;stroke-width:1.0;"/><text fill="#000000" font-family="sans-serif" font-size="11" lengthAdjust="spacing" textLength="53" x="177" y="547.9346">get_email()</text><ellipse cx="168" cy="557.3516" fill="#84BE84" rx="3" ry="3" style="stroke:#038048;stroke-width:1.0;"/><text fill="#000000" font-family="sans-serif" font-size="11" lengthAdjust="spacing" textLength="101" x="177" y="561.7705">get_phone_number()</text><!--MD5=[2ce0c9fb7f55b1e256ab28a8ea6b25ec]
class Customer--><rect codeLine="25" fill="#FEFECE" filter="url(#f1kxi64v6az130)" height="89.5078" id="Customer" style="stroke:#A80036;stroke-width:1.5;" width="128" x="172.5" y="218.5"/><ellipse cx="205.95" cy="234.5" fill="#ADD1B2" rx="11" ry="11" style="stroke:#A80036;stroke-width:1.0;"/><path d="M208.7156,230.375 Q208.8719,230.1563 209.0594,230.0469 Q209.2469,229.9375 209.4656,229.9375 Q209.8406,229.9375 210.075,230.1953 Q210.3094,230.4531 210.3094,231.0625 L210.3094,232.5156 Q210.3094,233.125 210.075,233.3906 Q209.8406,233.6563 209.4656,233.6563 Q209.1219,233.6563 208.9188,233.4531 Q208.7156,233.2656 208.6063,232.75 Q208.5594,232.3906 208.3719,232.2031 Q208.0438,231.8281 207.4344,231.6094 Q206.825,231.3906 206.2,231.3906 Q205.4344,231.3906 204.8016,231.7188 Q204.1688,232.0469 203.6766,232.7969 Q203.1844,233.5469 203.1844,234.5781 L203.1844,235.6719 Q203.1844,236.9063 204.075,237.7266 Q204.9656,238.5469 206.5594,238.5469 Q207.4969,238.5469 208.1531,238.2969 Q208.5438,238.1406 208.9656,237.7031 Q209.2313,237.4375 209.3797,237.3594 Q209.5281,237.2813 209.7313,237.2813 Q210.0594,237.2813 210.3172,237.5391 Q210.575,237.7969 210.575,238.1406 Q210.575,238.4844 210.2313,238.8906 Q209.7313,239.4688 208.9344,239.7969 Q207.8563,240.25 206.5594,240.25 Q205.0438,240.25 203.8406,239.625 Q202.8563,239.125 202.1688,238.0547 Q201.4813,236.9844 201.4813,235.7031 L201.4813,234.5469 Q201.4813,233.2188 202.0984,232.0703 Q202.7156,230.9219 203.8094,230.3047 Q204.9031,229.6875 206.1375,229.6875 Q206.8719,229.6875 207.5203,229.8516 Q208.1688,230.0156 208.7156,230.375 Z " fill="#000000"/><text fill="#000000" font-family="sans-serif" font-size="12" lengthAdjust="spacing" textLength="55" x="224.05" y="239.4102">Customer</text><line style="stroke:#A80036;stroke-width:1.5;" x1="173.5" x2="299.5" y1="250.5" y2="250.5"/><line style="stroke:#A80036;stroke-width:1.5;" x1="173.5" x2="299.5" y1="258.5" y2="258.5"/><ellipse cx="183.5" cy="269.5" fill="#84BE84" rx="3" ry="3" style="stroke:#038048;stroke-width:1.0;"/><text fill="#000000" font-family="sans-serif" font-size="11" lengthAdjust="spacing" textLength="102" x="192.5" y="273.9189">get_contact_details()</text><ellipse cx="183.5" cy="283.3359" fill="#84BE84" rx="3" ry="3" style="stroke:#038048;stroke-width:1.0;"/><text fill="#000000" font-family="sans-serif" font-size="11" lengthAdjust="spacing" textLength="69" x="192.5" y="287.7549">get_address()</text><ellipse cx="183.5" cy="297.1719" fill="#84BE84" rx="3" ry="3" style="stroke:#038048;stroke-width:1.0;"/><text fill="#000000" font-family="sans-serif" font-size="11" lengthAdjust="spacing" textLength="61" x="192.5" y="301.5908">get_orders()</text><!--MD5=[60d6b92408f98aed8df94d5c6e04aa63]
class State--><rect codeLine="30" fill="#FEFECE" filter="url(#f1kxi64v6az130)" height="131.0156" id="State" style="stroke:#A80036;stroke-width:1.5;" width="66" x="342.5" y="198"/><ellipse cx="360.2" cy="214" fill="#EB937F" rx="11" ry="11" style="stroke:#A80036;stroke-width:1.0;"/><path d="M359.0594,214.7969 L359.0594,217.2969 L363.3875,217.2969 L363.3875,216.375 Q363.3875,215.7656 363.6297,215.5 Q363.8719,215.2344 364.2469,215.2344 Q364.6219,215.2344 364.8563,215.5 Q365.0906,215.7656 365.0906,216.375 L365.0906,219 L357.0906,219 Q356.4656,219 356.2078,218.7656 Q355.95,218.5313 355.95,218.1406 Q355.95,217.7656 356.2156,217.5313 Q356.4813,217.2969 357.0906,217.2969 L357.3563,217.2969 L357.3563,210.6406 L357.0906,210.6406 Q356.4656,210.6406 356.2078,210.4063 Q355.95,210.1719 355.95,209.7813 Q355.95,209.4063 356.2078,209.1719 Q356.4656,208.9375 357.0906,208.9375 L364.7156,208.9375 L364.7156,211.5313 Q364.7156,212.1406 364.4891,212.3984 Q364.2625,212.6563 363.8719,212.6563 Q363.4969,212.6563 363.2625,212.3984 Q363.0281,212.1406 363.0281,211.5313 L363.0281,210.6406 L359.0594,210.6406 L359.0594,213.0938 L360.5438,213.0938 Q360.5438,212.4375 360.6688,212.25 Q360.9344,211.8438 361.4031,211.8438 Q361.7781,211.8438 362.0125,212.1016 Q362.2469,212.3594 362.2469,212.9688 L362.2469,214.9375 Q362.2469,215.4844 362.1219,215.6719 Q361.8563,216.0625 361.4031,216.0625 Q360.9344,216.0625 360.6688,215.6563 Q360.5438,215.4688 360.5438,214.7969 L359.0594,214.7969 Z " fill="#000000"/><text fill="#000000" font-family="sans-serif" font-size="12" lengthAdjust="spacing" textLength="28" x="374.8" y="218.9102">State</text><line style="stroke:#A80036;stroke-width:1.5;" x1="343.5" x2="407.5" y1="230" y2="230"/><text fill="#000000" font-family="sans-serif" font-size="11" lengthAdjust="spacing" textLength="38" x="348.5" y="245.4189">pending</text><text fill="#000000" font-family="sans-serif" font-size="11" lengthAdjust="spacing" textLength="45" x="348.5" y="259.2549">accepted</text><text fill="#000000" font-family="sans-serif" font-size="11" lengthAdjust="spacing" textLength="39" x="348.5" y="273.0908">rejected</text><text fill="#000000" font-family="sans-serif" font-size="11" lengthAdjust="spacing" textLength="54" x="348.5" y="286.9268">processing</text><text fill="#000000" font-family="sans-serif" font-size="11" lengthAdjust="spacing" textLength="38" x="348.5" y="300.7627">shipped</text><text fill="#000000" font-family="sans-serif" font-size="11" lengthAdjust="spacing" textLength="32" x="348.5" y="314.5986">closed</text><line style="stroke:#A80036;stroke-width:1.5;" x1="343.5" x2="407.5" y1="321.0156" y2="321.0156"/><!--MD5=[cf4d6237fcae255cd2e1656cf84a30e2]
class Order--><rect codeLine="38" fill="#FEFECE" filter="url(#f1kxi64v6az130)" height="131.0156" id="Order" style="stroke:#A80036;stroke-width:1.5;" width="142" x="304.5" y="7"/><ellipse cx="355.75" cy="23" fill="#ADD1B2" rx="11" ry="11" style="stroke:#A80036;stroke-width:1.0;"/><path d="M358.5156,18.875 Q358.6719,18.6563 358.8594,18.5469 Q359.0469,18.4375 359.2656,18.4375 Q359.6406,18.4375 359.875,18.6953 Q360.1094,18.9531 360.1094,19.5625 L360.1094,21.0156 Q360.1094,21.625 359.875,21.8906 Q359.6406,22.1563 359.2656,22.1563 Q358.9219,22.1563 358.7188,21.9531 Q358.5156,21.7656 358.4063,21.25 Q358.3594,20.8906 358.1719,20.7031 Q357.8438,20.3281 357.2344,20.1094 Q356.625,19.8906 356,19.8906 Q355.2344,19.8906 354.6016,20.2188 Q353.9688,20.5469 353.4766,21.2969 Q352.9844,22.0469 352.9844,23.0781 L352.9844,24.1719 Q352.9844,25.4063 353.875,26.2266 Q354.7656,27.0469 356.3594,27.0469 Q357.2969,27.0469 357.9531,26.7969 Q358.3438,26.6406 358.7656,26.2031 Q359.0313,25.9375 359.1797,25.8594 Q359.3281,25.7813 359.5313,25.7813 Q359.8594,25.7813 360.1172,26.0391 Q360.375,26.2969 360.375,26.6406 Q360.375,26.9844 360.0313,27.3906 Q359.5313,27.9688 358.7344,28.2969 Q357.6563,28.75 356.3594,28.75 Q354.8438,28.75 353.6406,28.125 Q352.6563,27.625 351.9688,26.5547 Q351.2813,25.4844 351.2813,24.2031 L351.2813,23.0469 Q351.2813,21.7188 351.8984,20.5703 Q352.5156,19.4219 353.6094,18.8047 Q354.7031,18.1875 355.9375,18.1875 Q356.6719,18.1875 357.3203,18.3516 Q357.9688,18.5156 358.5156,18.875 Z " fill="#000000"/><text fill="#000000" font-family="sans-serif" font-size="12" lengthAdjust="spacing" textLength="31" x="376.25" y="27.9102">Order</text><line style="stroke:#A80036;stroke-width:1.5;" x1="305.5" x2="445.5" y1="39" y2="39"/><rect fill="none" height="6" style="stroke:#C82930;stroke-width:1.0;" width="6" x="312.5" y="47"/><text fill="#000000" font-family="sans-serif" font-size="11" lengthAdjust="spacing" textLength="46" x="324.5" y="54.4189">Date date</text><line style="stroke:#A80036;stroke-width:1.5;" x1="305.5" x2="445.5" y1="60.8359" y2="60.8359"/><ellipse cx="315.5" cy="71.8359" fill="#84BE84" rx="3" ry="3" style="stroke:#038048;stroke-width:1.0;"/><text fill="#000000" font-family="sans-serif" font-size="11" lengthAdjust="spacing" textLength="40" x="324.5" y="76.2549">cancel()</text><ellipse cx="315.5" cy="85.6719" fill="#84BE84" rx="3" ry="3" style="stroke:#038048;stroke-width:1.0;"/><text fill="#000000" font-family="sans-serif" font-size="11" lengthAdjust="spacing" textLength="48" x="324.5" y="90.0908">process()</text><ellipse cx="315.5" cy="99.5078" fill="#84BE84" rx="3" ry="3" style="stroke:#038048;stroke-width:1.0;"/><text fill="#000000" font-family="sans-serif" font-size="11" lengthAdjust="spacing" textLength="49" x="324.5" y="103.9268">dispatch()</text><ellipse cx="315.5" cy="113.3438" fill="#84BE84" rx="3" ry="3" style="stroke:#038048;stroke-width:1.0;"/><text fill="#000000" font-family="sans-serif" font-size="11" lengthAdjust="spacing" textLength="77" x="324.5" y="117.7627">calculate_total()</text><ellipse cx="315.5" cy="127.1797" fill="#84BE84" rx="3" ry="3" style="stroke:#038048;stroke-width:1.0;"/><text fill="#000000" font-family="sans-serif" font-size="11" lengthAdjust="spacing" textLength="116" x="324.5" y="131.5986">claculate_total_weight()</text><!--MD5=[a894570104858a48d10e650672270519]
class OrderDetail--><rect codeLine="46" fill="#FEFECE" filter="url(#f1kxi64v6az130)" height="89.5078" id="OrderDetail" style="stroke:#A80036;stroke-width:1.5;" width="121" x="448" y="218.5"/><ellipse cx="474.7" cy="234.5" fill="#ADD1B2" rx="11" ry="11" style="stroke:#A80036;stroke-width:1.0;"/><path d="M477.4656,230.375 Q477.6219,230.1563 477.8094,230.0469 Q477.9969,229.9375 478.2156,229.9375 Q478.5906,229.9375 478.825,230.1953 Q479.0594,230.4531 479.0594,231.0625 L479.0594,232.5156 Q479.0594,233.125 478.825,233.3906 Q478.5906,233.6563 478.2156,233.6563 Q477.8719,233.6563 477.6688,233.4531 Q477.4656,233.2656 477.3563,232.75 Q477.3094,232.3906 477.1219,232.2031 Q476.7938,231.8281 476.1844,231.6094 Q475.575,231.3906 474.95,231.3906 Q474.1844,231.3906 473.5516,231.7188 Q472.9188,232.0469 472.4266,232.7969 Q471.9344,233.5469 471.9344,234.5781 L471.9344,235.6719 Q471.9344,236.9063 472.825,237.7266 Q473.7156,238.5469 475.3094,238.5469 Q476.2469,238.5469 476.9031,238.2969 Q477.2938,238.1406 477.7156,237.7031 Q477.9813,237.4375 478.1297,237.3594 Q478.2781,237.2813 478.4813,237.2813 Q478.8094,237.2813 479.0672,237.5391 Q479.325,237.7969 479.325,238.1406 Q479.325,238.4844 478.9813,238.8906 Q478.4813,239.4688 477.6844,239.7969 Q476.6063,240.25 475.3094,240.25 Q473.7938,240.25 472.5906,239.625 Q471.6063,239.125 470.9188,238.0547 Q470.2313,236.9844 470.2313,235.7031 L470.2313,234.5469 Q470.2313,233.2188 470.8484,232.0703 Q471.4656,230.9219 472.5594,230.3047 Q473.6531,229.6875 474.8875,229.6875 Q475.6219,229.6875 476.2703,229.8516 Q476.9188,230.0156 477.4656,230.375 Z " fill="#000000"/><text fill="#000000" font-family="sans-serif" font-size="12" lengthAdjust="spacing" textLength="63" x="491.3" y="239.4102">OrderDetail</text><line style="stroke:#A80036;stroke-width:1.5;" x1="449" x2="568" y1="250.5" y2="250.5"/><rect fill="none" height="6" style="stroke:#C82930;stroke-width:1.0;" width="6" x="456" y="258.5"/><text fill="#000000" font-family="sans-serif" font-size="11" lengthAdjust="spacing" textLength="52" x="468" y="265.9189">int quantity</text><line style="stroke:#A80036;stroke-width:1.5;" x1="449" x2="568" y1="272.3359" y2="272.3359"/><ellipse cx="459" cy="283.3359" fill="#84BE84" rx="3" ry="3" style="stroke:#038048;stroke-width:1.0;"/><text fill="#000000" font-family="sans-serif" font-size="11" lengthAdjust="spacing" textLength="95" x="468" y="287.7549">calculate_subtotal()</text><ellipse cx="459" cy="297.1719" fill="#84BE84" rx="3" ry="3" style="stroke:#038048;stroke-width:1.0;"/><text fill="#000000" font-family="sans-serif" font-size="11" lengthAdjust="spacing" textLength="90" x="468" y="301.5908">calculate_weight()</text><!--MD5=[44a1b4afaef76c16e6c9ec4990ad0c8d]
class Item--><rect codeLine="51" fill="#FEFECE" filter="url(#f1kxi64v6az130)" height="117.1797" id="Item" style="stroke:#A80036;stroke-width:1.5;" width="143" x="441" y="430.5"/><ellipse cx="496.25" cy="446.5" fill="#ADD1B2" rx="11" ry="11" style="stroke:#A80036;stroke-width:1.0;"/><path d="M499.0156,442.375 Q499.1719,442.1563 499.3594,442.0469 Q499.5469,441.9375 499.7656,441.9375 Q500.1406,441.9375 500.375,442.1953 Q500.6094,442.4531 500.6094,443.0625 L500.6094,444.5156 Q500.6094,445.125 500.375,445.3906 Q500.1406,445.6563 499.7656,445.6563 Q499.4219,445.6563 499.2188,445.4531 Q499.0156,445.2656 498.9063,444.75 Q498.8594,444.3906 498.6719,444.2031 Q498.3438,443.8281 497.7344,443.6094 Q497.125,443.3906 496.5,443.3906 Q495.7344,443.3906 495.1016,443.7188 Q494.4688,444.0469 493.9766,444.7969 Q493.4844,445.5469 493.4844,446.5781 L493.4844,447.6719 Q493.4844,448.9063 494.375,449.7266 Q495.2656,450.5469 496.8594,450.5469 Q497.7969,450.5469 498.4531,450.2969 Q498.8438,450.1406 499.2656,449.7031 Q499.5313,449.4375 499.6797,449.3594 Q499.8281,449.2813 500.0313,449.2813 Q500.3594,449.2813 500.6172,449.5391 Q500.875,449.7969 500.875,450.1406 Q500.875,450.4844 500.5313,450.8906 Q500.0313,451.4688 499.2344,451.7969 Q498.1563,452.25 496.8594,452.25 Q495.3438,452.25 494.1406,451.625 Q493.1563,451.125 492.4688,450.0547 Q491.7813,448.9844 491.7813,447.7031 L491.7813,446.5469 Q491.7813,445.2188 492.3984,444.0703 Q493.0156,442.9219 494.1094,442.3047 Q495.2031,441.6875 496.4375,441.6875 Q497.1719,441.6875 497.8203,441.8516 Q498.4688,442.0156 499.0156,442.375 Z " fill="#000000"/><text fill="#000000" font-family="sans-serif" font-size="12" lengthAdjust="spacing" textLength="24" x="516.75" y="451.4102">Item</text><line style="stroke:#A80036;stroke-width:1.5;" x1="442" x2="583" y1="462.5" y2="462.5"/><rect fill="none" height="6" style="stroke:#C82930;stroke-width:1.0;" width="6" x="449" y="470.5"/><text fill="#000000" font-family="sans-serif" font-size="11" lengthAdjust="spacing" textLength="48" x="461" y="477.9189">float price</text><rect fill="none" height="6" style="stroke:#C82930;stroke-width:1.0;" width="6" x="449" y="484.3359"/><text fill="#000000" font-family="sans-serif" font-size="11" lengthAdjust="spacing" textLength="57" x="461" y="491.7549">float weight</text><rect fill="none" height="6" style="stroke:#C82930;stroke-width:1.0;" width="6" x="449" y="498.1719"/><text fill="#000000" font-family="sans-serif" font-size="11" lengthAdjust="spacing" textLength="84" x="461" y="505.5908">String description</text><line style="stroke:#A80036;stroke-width:1.5;" x1="442" x2="583" y1="512.0078" y2="512.0078"/><ellipse cx="452" cy="523.0078" fill="#84BE84" rx="3" ry="3" style="stroke:#038048;stroke-width:1.0;"/><text fill="#000000" font-family="sans-serif" font-size="11" lengthAdjust="spacing" textLength="117" x="461" y="527.4268">get_price_for_quantity()</text><ellipse cx="452" cy="536.8438" fill="#84BE84" rx="3" ry="3" style="stroke:#038048;stroke-width:1.0;"/><text fill="#000000" font-family="sans-serif" font-size="11" lengthAdjust="spacing" textLength="48" x="461" y="541.2627">in_stock()</text><!--MD5=[764fca796ce7f635542948d8fc39db5e]
class Payment--><rect codeLine="58" fill="#FEFECE" filter="url(#f1kxi64v6az130)" height="61.8359" id="Payment" style="stroke:#A80036;stroke-width:1.5;" width="85" x="321" y="458"/><ellipse cx="337.8" cy="474" fill="#A9DCDF" rx="11" ry="11" style="stroke:#A80036;stroke-width:1.0;"/><path d="M339.9875,475.7656 L335.8469,475.7656 L335.425,476.7969 L335.8469,476.7969 Q336.4563,476.7969 336.7219,477.0313 Q336.9875,477.2656 336.9875,477.6563 Q336.9875,478.0313 336.7219,478.2656 Q336.4563,478.5 335.8469,478.5 L333.55,478.5 Q332.9406,478.5 332.6828,478.2656 Q332.425,478.0313 332.425,477.6406 Q332.425,477.2656 332.6984,477.0234 Q332.9719,476.7813 333.5969,476.7969 L336.2688,470.1406 L335.1594,470.1406 Q334.55,470.1406 334.2844,469.9063 Q334.0188,469.6719 334.0188,469.2813 Q334.0188,468.9063 334.2844,468.6719 Q334.55,468.4375 335.1594,468.4375 L338.8313,468.4375 L342.2219,476.7969 Q342.8156,476.7969 343.0031,476.9375 Q343.3938,477.2031 343.3938,477.6563 Q343.3938,478.0313 343.1359,478.2656 Q342.8781,478.5 342.2688,478.5 L339.9719,478.5 Q339.3625,478.5 339.0969,478.2656 Q338.8313,478.0313 338.8313,477.6406 Q338.8313,477.2656 339.0969,477.0313 Q339.3625,476.7969 339.9719,476.7969 L340.3938,476.7969 L339.9875,475.7656 Z M339.2688,474.0625 L337.9094,470.6875 L336.5344,474.0625 L339.2688,474.0625 Z " fill="#000000"/><text fill="#000000" font-family="sans-serif" font-size="12" font-style="italic" lengthAdjust="spacing" textLength="49" x="352.2" y="478.9102">Payment</text><line style="stroke:#A80036;stroke-width:1.5;" x1="322" x2="405" y1="490" y2="490"/><rect fill="none" height="6" style="stroke:#C82930;stroke-width:1.0;" width="6" x="329" y="498"/><text fill="#000000" font-family="sans-serif" font-size="11" lengthAdjust="spacing" textLength="59" x="341" y="505.4189">float amount</text><line style="stroke:#A80036;stroke-width:1.5;" x1="322" x2="405" y1="511.8359" y2="511.8359"/><!--MD5=[422d6beab778cf6f724f28d21633e6df]
class Cash--><rect codeLine="61" fill="#FEFECE" filter="url(#f1kxi64v6az130)" height="89.5078" id="Cash" style="stroke:#A80036;stroke-width:1.5;" width="123" x="140" y="662.5"/><ellipse cx="182.45" cy="678.5" fill="#ADD1B2" rx="11" ry="11" style="stroke:#A80036;stroke-width:1.0;"/><path d="M185.2156,674.375 Q185.3719,674.1563 185.5594,674.0469 Q185.7469,673.9375 185.9656,673.9375 Q186.3406,673.9375 186.575,674.1953 Q186.8094,674.4531 186.8094,675.0625 L186.8094,676.5156 Q186.8094,677.125 186.575,677.3906 Q186.3406,677.6563 185.9656,677.6563 Q185.6219,677.6563 185.4188,677.4531 Q185.2156,677.2656 185.1063,676.75 Q185.0594,676.3906 184.8719,676.2031 Q184.5438,675.8281 183.9344,675.6094 Q183.325,675.3906 182.7,675.3906 Q181.9344,675.3906 181.3016,675.7188 Q180.6688,676.0469 180.1766,676.7969 Q179.6844,677.5469 179.6844,678.5781 L179.6844,679.6719 Q179.6844,680.9063 180.575,681.7266 Q181.4656,682.5469 183.0594,682.5469 Q183.9969,682.5469 184.6531,682.2969 Q185.0438,682.1406 185.4656,681.7031 Q185.7313,681.4375 185.8797,681.3594 Q186.0281,681.2813 186.2313,681.2813 Q186.5594,681.2813 186.8172,681.5391 Q187.075,681.7969 187.075,682.1406 Q187.075,682.4844 186.7313,682.8906 Q186.2313,683.4688 185.4344,683.7969 Q184.3563,684.25 183.0594,684.25 Q181.5438,684.25 180.3406,683.625 Q179.3563,683.125 178.6688,682.0547 Q177.9813,680.9844 177.9813,679.7031 L177.9813,678.5469 Q177.9813,677.2188 178.5984,676.0703 Q179.2156,674.9219 180.3094,674.3047 Q181.4031,673.6875 182.6375,673.6875 Q183.3719,673.6875 184.0203,673.8516 Q184.6688,674.0156 185.2156,674.375 Z " fill="#000000"/><text fill="#000000" font-family="sans-serif" font-size="12" lengthAdjust="spacing" textLength="30" x="202.55" y="683.4102">Cash</text><line style="stroke:#A80036;stroke-width:1.5;" x1="141" x2="262" y1="694.5" y2="694.5"/><rect fill="none" height="6" style="stroke:#C82930;stroke-width:1.0;" width="6" x="148" y="702.5"/><text fill="#000000" font-family="sans-serif" font-size="11" lengthAdjust="spacing" textLength="97" x="160" y="709.9189">float cash_tendered</text><line style="stroke:#A80036;stroke-width:1.5;" x1="141" x2="262" y1="716.3359" y2="716.3359"/><ellipse cx="151" cy="727.3359" fill="#84BE84" rx="3" ry="3" style="stroke:#038048;stroke-width:1.0;"/><text fill="#000000" font-family="sans-serif" font-size="11" lengthAdjust="spacing" textLength="69" x="160" y="731.7549">tender_cash()</text><ellipse cx="151" cy="741.1719" fill="#84BE84" rx="3" ry="3" style="stroke:#038048;stroke-width:1.0;"/><text fill="#000000" font-family="sans-serif" font-size="11" lengthAdjust="spacing" textLength="79" x="160" y="745.5908">return_change()</text><!--MD5=[014b06c615e36682b8cc30cf021da1f2]
class BankTransfere--><rect codeLine="66" fill="#FEFECE" filter="url(#f1kxi64v6az130)" height="103.3438" id="BankTransfere" style="stroke:#A80036;stroke-width:1.5;" width="130" x="298.5" y="656"/><ellipse cx="321.15" cy="672" fill="#ADD1B2" rx="11" ry="11" style="stroke:#A80036;stroke-width:1.0;"/><path d="M323.9156,667.875 Q324.0719,667.6563 324.2594,667.5469 Q324.4469,667.4375 324.6656,667.4375 Q325.0406,667.4375 325.275,667.6953 Q325.5094,667.9531 325.5094,668.5625 L325.5094,670.0156 Q325.5094,670.625 325.275,670.8906 Q325.0406,671.1563 324.6656,671.1563 Q324.3219,671.1563 324.1188,670.9531 Q323.9156,670.7656 323.8063,670.25 Q323.7594,669.8906 323.5719,669.7031 Q323.2438,669.3281 322.6344,669.1094 Q322.025,668.8906 321.4,668.8906 Q320.6344,668.8906 320.0016,669.2188 Q319.3688,669.5469 318.8766,670.2969 Q318.3844,671.0469 318.3844,672.0781 L318.3844,673.1719 Q318.3844,674.4063 319.275,675.2266 Q320.1656,676.0469 321.7594,676.0469 Q322.6969,676.0469 323.3531,675.7969 Q323.7438,675.6406 324.1656,675.2031 Q324.4313,674.9375 324.5797,674.8594 Q324.7281,674.7813 324.9313,674.7813 Q325.2594,674.7813 325.5172,675.0391 Q325.775,675.2969 325.775,675.6406 Q325.775,675.9844 325.4313,676.3906 Q324.9313,676.9688 324.1344,677.2969 Q323.0563,677.75 321.7594,677.75 Q320.2438,677.75 319.0406,677.125 Q318.0563,676.625 317.3688,675.5547 Q316.6813,674.4844 316.6813,673.2031 L316.6813,672.0469 Q316.6813,670.7188 317.2984,669.5703 Q317.9156,668.4219 319.0094,667.8047 Q320.1031,667.1875 321.3375,667.1875 Q322.0719,667.1875 322.7203,667.3516 Q323.3688,667.5156 323.9156,667.875 Z " fill="#000000"/><text fill="#000000" font-family="sans-serif" font-size="12" lengthAdjust="spacing" textLength="81" x="336.85" y="676.9102">BankTransfere</text><line style="stroke:#A80036;stroke-width:1.5;" x1="299.5" x2="427.5" y1="688" y2="688"/><rect fill="none" height="6" style="stroke:#C82930;stroke-width:1.0;" width="6" x="306.5" y="696"/><text fill="#000000" font-family="sans-serif" font-size="11" lengthAdjust="spacing" textLength="104" x="318.5" y="703.4189">String recipient_name</text><rect fill="none" height="6" style="stroke:#C82930;stroke-width:1.0;" width="6" x="306.5" y="709.8359"/><text fill="#000000" font-family="sans-serif" font-size="11" lengthAdjust="spacing" textLength="55" x="318.5" y="717.2549">String IBAN</text><rect fill="none" height="6" style="stroke:#C82930;stroke-width:1.0;" width="6" x="306.5" y="723.6719"/><text fill="#000000" font-family="sans-serif" font-size="11" lengthAdjust="spacing" textLength="47" x="318.5" y="731.0908">String BIC</text><line style="stroke:#A80036;stroke-width:1.5;" x1="299.5" x2="427.5" y1="737.5078" y2="737.5078"/><ellipse cx="309.5" cy="748.5078" fill="#84BE84" rx="3" ry="3" style="stroke:#038048;stroke-width:1.0;"/><text fill="#000000" font-family="sans-serif" font-size="11" lengthAdjust="spacing" textLength="59" x="318.5" y="752.9268">authorized()</text><!--MD5=[91d4151b6d4c9a3d01b6d84b2458eece]
class CreditCard--><rect codeLine="72" fill="#FEFECE" filter="url(#f1kxi64v6az130)" height="117.1797" id="CreditCard" style="stroke:#A80036;stroke-width:1.5;" width="135" x="464" y="649"/><ellipse cx="498.35" cy="665" fill="#ADD1B2" rx="11" ry="11" style="stroke:#A80036;stroke-width:1.0;"/><path d="M501.1156,660.875 Q501.2719,660.6563 501.4594,660.5469 Q501.6469,660.4375 501.8656,660.4375 Q502.2406,660.4375 502.475,660.6953 Q502.7094,660.9531 502.7094,661.5625 L502.7094,663.0156 Q502.7094,663.625 502.475,663.8906 Q502.2406,664.1563 501.8656,664.1563 Q501.5219,664.1563 501.3188,663.9531 Q501.1156,663.7656 501.0063,663.25 Q500.9594,662.8906 500.7719,662.7031 Q500.4438,662.3281 499.8344,662.1094 Q499.225,661.8906 498.6,661.8906 Q497.8344,661.8906 497.2016,662.2188 Q496.5688,662.5469 496.0766,663.2969 Q495.5844,664.0469 495.5844,665.0781 L495.5844,666.1719 Q495.5844,667.4063 496.475,668.2266 Q497.3656,669.0469 498.9594,669.0469 Q499.8969,669.0469 500.5531,668.7969 Q500.9438,668.6406 501.3656,668.2031 Q501.6313,667.9375 501.7797,667.8594 Q501.9281,667.7813 502.1313,667.7813 Q502.4594,667.7813 502.7172,668.0391 Q502.975,668.2969 502.975,668.6406 Q502.975,668.9844 502.6313,669.3906 Q502.1313,669.9688 501.3344,670.2969 Q500.2563,670.75 498.9594,670.75 Q497.4438,670.75 496.2406,670.125 Q495.2563,669.625 494.5688,668.5547 Q493.8813,667.4844 493.8813,666.2031 L493.8813,665.0469 Q493.8813,663.7188 494.4984,662.5703 Q495.1156,661.4219 496.2094,660.8047 Q497.3031,660.1875 498.5375,660.1875 Q499.2719,660.1875 499.9203,660.3516 Q500.5688,660.5156 501.1156,660.875 Z " fill="#000000"/><text fill="#000000" font-family="sans-serif" font-size="12" lengthAdjust="spacing" textLength="60" x="516.65" y="669.9102">CreditCard</text><line style="stroke:#A80036;stroke-width:1.5;" x1="465" x2="598" y1="681" y2="681"/><rect fill="none" height="6" style="stroke:#C82930;stroke-width:1.0;" width="6" x="472" y="689"/><text fill="#000000" font-family="sans-serif" font-size="11" lengthAdjust="spacing" textLength="67" x="484" y="696.4189">String number</text><rect fill="none" height="6" style="stroke:#C82930;stroke-width:1.0;" width="6" x="472" y="702.8359"/><text fill="#000000" font-family="sans-serif" font-size="11" lengthAdjust="spacing" textLength="52" x="484" y="710.2549">String type</text><rect fill="none" height="6" style="stroke:#C82930;stroke-width:1.0;" width="6" x="472" y="716.6719"/><text fill="#000000" font-family="sans-serif" font-size="11" lengthAdjust="spacing" textLength="109" x="484" y="724.0908">String cardholer_name</text><rect fill="none" height="6" style="stroke:#C82930;stroke-width:1.0;" width="6" x="472" y="730.5078"/><text fill="#000000" font-family="sans-serif" font-size="11" lengthAdjust="spacing" textLength="99" x="484" y="737.9268">Date expiration_date</text><line style="stroke:#A80036;stroke-width:1.5;" x1="465" x2="598" y1="744.3438" y2="744.3438"/><ellipse cx="475" cy="755.3438" fill="#84BE84" rx="3" ry="3" style="stroke:#038048;stroke-width:1.0;"/><text fill="#000000" font-family="sans-serif" font-size="11" lengthAdjust="spacing" textLength="59" x="484" y="759.7627">authorized()</text><!--MD5=[07316aa1bbd27c9ba42af228f5bab7b8]
reverse link Payment to Cash--><path d="M300.84,500 C300.84,500 290.17,500 290.17,500 C290.17,500 290.17,708 290.17,708 C290.17,708 278.21,708 263.08,708 " fill="none" id="Payment-backto-Cash" style="stroke:#A80036;stroke-width:1.0;"/><polygon fill="none" points="300.84,493,320.84,500,300.84,507,300.84,493" style="stroke:#A80036;stroke-width:1.0;"/><!--MD5=[8b4150e7b297bd0b813b5d5659795a12]
reverse link Payment to BankTransfere--><path d="M349.33,540.31 C349.33,540.31 349.33,655.58 349.33,655.58 " fill="none" id="Payment-backto-BankTransfere" style="stroke:#A80036;stroke-width:1.0;"/><polygon fill="none" points="342.33,540.31,349.33,520.31,356.33,540.31,342.33,540.31" style="stroke:#A80036;stroke-width:1.0;"/><!--MD5=[704ea8610878b22e9cefd2fe13f8ac1a]
reverse link Payment to CreditCard--><path d="M377.67,540.23 C377.67,540.23 377.67,653 377.67,653 C377.67,653 422.37,653 463.58,653 " fill="none" id="Payment-backto-CreditCard" style="stroke:#A80036;stroke-width:1.0;"/><polygon fill="none" points="370.67,540.23,377.67,520.23,384.67,540.23,370.67,540.23" style="stroke:#A80036;stroke-width:1.0;"/><!--MD5=[65622aaf8fcfd7b10df86db327daabc8]
link Order to Customer--><path codeLine="79" d="M312.75,138.14 C312.75,193.57 312.75,264 312.75,264 C312.75,264 307.98,264 300.84,264 " fill="none" id="Order-Customer" style="stroke:#A80036;stroke-width:1.0;"/><text fill="#000000" font-family="sans-serif" font-size="13" lengthAdjust="spacing" textLength="20" x="284.793" y="159.7079">0..*</text><text fill="#000000" font-family="sans-serif" font-size="13" lengthAdjust="spacing" textLength="7" x="308.684" y="260.6767">1</text><!--MD5=[8d3f92eda39f55b1881e1331ed506a49]
reverse link Order to OrderDetail--><path codeLine="80" d="M434.75,151.14 C434.75,151.14 434.75,264 434.75,264 C434.75,264 440.11,264 447.94,264 " fill="none" id="Order-backto-OrderDetail" style="stroke:#A80036;stroke-width:1.0;"/><polygon fill="#A80036" points="434.75,138.14,430.75,144.14,434.75,150.14,438.75,144.14,434.75,138.14" style="stroke:#A80036;stroke-width:1.0;"/><text fill="#000000" font-family="sans-serif" font-size="13" lengthAdjust="spacing" textLength="7" x="433.8477" y="159.7079">1</text><text fill="#000000" font-family="sans-serif" font-size="13" lengthAdjust="spacing" textLength="20" x="419.7815" y="260.6767">0..*</text><!--MD5=[1724ada59dee632394b1e9b70396c85a]
link Order to State--><path codeLine="81" d="M375.5,138.23 C375.5,138.23 375.5,192.97 375.5,192.97 " fill="none" id="Order-to-State" style="stroke:#A80036;stroke-width:1.0;"/><polygon fill="#A80036" points="375.5,197.97,379.5,188.97,375.5,192.97,371.5,188.97,375.5,197.97" style="stroke:#A80036;stroke-width:1.0;"/><text fill="#000000" font-family="sans-serif" font-size="13" lengthAdjust="spacing" textLength="7" x="368.1391" y="159.3458">1</text><text fill="#000000" font-family="sans-serif" font-size="13" lengthAdjust="spacing" textLength="7" x="368.0953" y="186.9826">1</text><!--MD5=[4536e6ce80ffa8ef314c2b3031d7b98a]
link OrderDetail to Item--><path codeLine="82" d="M508.5,308.59 C508.5,308.59 508.5,425.29 508.5,425.29 " fill="none" id="OrderDetail-to-Item" style="stroke:#A80036;stroke-width:1.0;"/><polygon fill="#A80036" points="508.5,430.29,512.5,421.29,508.5,425.29,504.5,421.29,508.5,430.29" style="stroke:#A80036;stroke-width:1.0;"/><text fill="#000000" font-family="sans-serif" font-size="13" lengthAdjust="spacing" textLength="20" x="487.0938" y="329.6102">0..*</text><text fill="#000000" font-family="sans-serif" font-size="13" lengthAdjust="spacing" textLength="7" x="500.5859" y="419.6653">1</text><!--MD5=[5649a2873c3695c33bdc4cd32a31b0af]
reverse link Customer to ContactDetails--><path codeLine="83" d="M248.17,321.59 C248.17,321.59 248.17,409.3 248.17,409.3 " fill="none" id="Customer-backto-ContactDetails" style="stroke:#A80036;stroke-width:1.0;"/><polygon fill="#A80036" points="248.17,308.59,244.17,314.59,248.17,320.59,252.17,314.59,248.17,308.59" style="stroke:#A80036;stroke-width:1.0;"/><text fill="#000000" font-family="sans-serif" font-size="13" lengthAdjust="spacing" textLength="7" x="242.3189" y="329.6102">1</text><text fill="#000000" font-family="sans-serif" font-size="13" lengthAdjust="spacing" textLength="7" x="243.306" y="398.7409">1</text><!--MD5=[d2a3d6f55785c562bcc187930a126fcf]
reverse link Customer to Address--><path codeLine="84" d="M210.33,321.57 C210.33,321.57 210.33,400 210.33,400 C210.33,400 162.9,400 122.14,400 " fill="none" id="Customer-backto-Address" style="stroke:#A80036;stroke-width:1.0;"/><polygon fill="#A80036" points="210.33,308.57,206.33,314.57,210.33,320.57,214.33,314.57,210.33,308.57" style="stroke:#A80036;stroke-width:1.0;"/><text fill="#000000" font-family="sans-serif" font-size="13" lengthAdjust="spacing" textLength="7" x="199.1577" y="329.5874">1</text><text fill="#000000" font-family="sans-serif" font-size="13" lengthAdjust="spacing" textLength="7" x="129.9736" y="385.077">1</text><!--MD5=[8745e19234af8457a61f5cf65f4fbbe2]
link Customer to Payment--><path codeLine="85" d="M294.33,308.68 C294.33,371.87 294.33,479 294.33,479 C294.33,479 306.64,479 320.88,479 " fill="none" id="Customer-Payment" style="stroke:#A80036;stroke-width:1.0;"/><text fill="#000000" font-family="sans-serif" font-size="13" lengthAdjust="spacing" textLength="7" x="294.6306" y="329.3779">1</text><text fill="#000000" font-family="sans-serif" font-size="13" lengthAdjust="spacing" textLength="20" x="293.1514" y="473.8892">1..*</text><!--MD5=[01f56b7d0eddd741240e67e3587e33c3]
@startuml order_management_system
skinparam linetype ortho
class Address {
    - String country
    - String city
    - int postalcode
    - String street
    - int number
    + get_country()
    + get_city()
    + get_postalcode()
    + get_street()
    + get_number()
    + get_full_address()
}
class ContactDetails {
    - String first_name
    - String last_name
    - String email
    - String phone_number
    + get_first_name()
    + get_last_name()
    + get_email()
    + get_phone_number()
}
class Customer {
    + get_contact_details()
    + get_address()
    + get_orders()
}
enum State {
    pending
    accepted
    rejected
    processing
    shipped
    closed
}
class Order {
    - Date date
    + cancel()
    + process()
    + dispatch()
    + calculate_total()
    + claculate_total_weight()
}
class OrderDetail {
    - int quantity
    + calculate_subtotal()
    + calculate_weight()
}
class Item {
    - float price
    - float weight
    - String description
    + get_price_for_quantity()
    + in_stock()
}
abstract class Payment {
    - float amount
}
class Cash extends Payment {
    - float cash_tendered
    + tender_cash()
    + return_change()
}
class BankTransfere extends Payment {
    - String recipient_name
    - String IBAN
    - String BIC
    + authorized()
}
class CreditCard extends Payment {
    - String number
    - String type
    - String cardholer_name
    - Date expiration_date
    + authorized()
}
Order "0..*" - - "1" Customer
Order "1" *- - "0..*" OrderDetail
Order "1" - -> "1" State
OrderDetail "0..*" - -> "1" Item
Customer "1" *- - "1" ContactDetails
Customer "1" *- - "1" Address
Customer "1" - - "1..*" Payment
@enduml

PlantUML version 1.2021.00(Sun Jan 10 11:25:05 CET 2021)
(GPL source distribution)
Java Runtime: Java(TM) SE Runtime Environment
JVM: Java HotSpot(TM) 64-Bit Server VM
Default Encoding: Cp1252
Language: de
Country: DE
--></g></svg>